{
    "asset" : {
        "generator" : "Khronos glTF Blender I/O v1.6.16",
        "version" : "2.0"
    },
    "scene" : 0,
    "scenes" : [
        {
            "name" : "Scene",
            "nodes" : [
                0
            ]
        }
    ],
    "nodes" : [
        {
            "mesh" : 0,
            "name" : "Gamebody",
            "rotation" : [
                0.7071068286895752,
                0,
                0,
                0.7071068286895752
            ],
            "scale" : [
                0.44474202394485474,
                1.1787346601486206,
                0.44474202394485474
            ],
            "translation" : [
                2.0563910007476807,
                -2.2971034049987793,
                0
            ]
        }
    ],
    "materials" : [
        {
            "doubleSided" : true,
            "name" : "Button",
            "pbrMetallicRoughness" : {
                "baseColorFactor" : [
                    0.8000000715255737,
                    0.04293302819132805,
                    0.051784347742795944,
                    1
                ],
                "metallicFactor" : 0,
                "roughnessFactor" : 0.5
            }
        },
        {
            "doubleSided" : true,
            "name" : "Plastic",
            "pbrMetallicRoughness" : {
                "baseColorFactor" : [
                    0.6151768565177917,
                    0.5942865014076233,
                    0.44671517610549927,
                    1
                ],
                "metallicFactor" : 0,
                "roughnessFactor" : 0.4000000059604645
            }
        },
        {
            "doubleSided" : true,
            "name" : "Screen",
            "pbrMetallicRoughness" : {
                "baseColorFactor" : [
                    0.310360312461853,
                    0.8000000715255737,
                    0.12953051924705505,
                    1
                ],
                "metallicFactor" : 0,
                "roughnessFactor" : 0.5
            }
        },
        {
            "doubleSided" : true,
            "name" : "Dark Plastic",
            "pbrMetallicRoughness" : {
                "baseColorFactor" : [
                    0.035217732191085815,
                    0.035217732191085815,
                    0.035217732191085815,
                    1
                ],
                "metallicFactor" : 0,
                "roughnessFactor" : 0.5
            }
        },
        {
            "doubleSided" : true,
            "name" : "DPad",
            "pbrMetallicRoughness" : {
                "baseColorFactor" : [
                    0.01108753215521574,
                    0.01108753215521574,
                    0.01108753215521574,
                    1
                ],
                "metallicFactor" : 0,
                "roughnessFactor" : 0.5
            }
        },
        {
            "doubleSided" : true,
            "name" : "Rubber",
            "pbrMetallicRoughness" : {
                "baseColorFactor" : [
                    0.5595993399620056,
                    0.5595993399620056,
                    0.5595993399620056,
                    1
                ],
                "metallicFactor" : 0,
                "roughnessFactor" : 0.5
            }
        }
    ],
    "meshes" : [
        {
            "name" : "Cylinder",
            "primitives" : [
                {
                    "attributes" : {
                        "POSITION" : 0,
                        "NORMAL" : 1,
                        "TEXCOORD_0" : 2
                    },
                    "indices" : 3,
                    "material" : 0
                },
                {
                    "attributes" : {
                        "POSITION" : 4,
                        "NORMAL" : 5,
                        "TEXCOORD_0" : 6
                    },
                    "indices" : 7,
                    "material" : 1
                },
                {
                    "attributes" : {
                        "POSITION" : 8,
                        "NORMAL" : 9,
                        "TEXCOORD_0" : 10
                    },
                    "indices" : 11,
                    "material" : 2
                },
                {
                    "attributes" : {
                        "POSITION" : 12,
                        "NORMAL" : 13,
                        "TEXCOORD_0" : 14
                    },
                    "indices" : 15,
                    "material" : 3
                },
                {
                    "attributes" : {
                        "POSITION" : 16,
                        "NORMAL" : 17,
                        "TEXCOORD_0" : 18
                    },
                    "indices" : 19,
                    "material" : 4
                },
                {
                    "attributes" : {
                        "POSITION" : 20,
                        "NORMAL" : 21,
                        "TEXCOORD_0" : 22
                    },
                    "indices" : 23,
                    "material" : 5
                }
            ]
        }
    ],
    "accessors" : [
        {
            "bufferView" : 0,
            "componentType" : 5126,
            "count" : 144,
            "max" : [
                1.01183021068573,
                1,
                2.796497106552124
            ],
            "min" : [
                -3.337122678756714,
                -0.44518935680389404,
                -0.9874767661094666
            ],
            "type" : "VEC3"
        },
        {
            "bufferView" : 1,
            "componentType" : 5126,
            "count" : 144,
            "type" : "VEC3"
        },
        {
            "bufferView" : 2,
            "componentType" : 5126,
            "count" : 144,
            "type" : "VEC2"
        },
        {
            "bufferView" : 3,
            "componentType" : 5123,
            "count" : 204,
            "type" : "SCALAR"
        },
        {
            "bufferView" : 4,
            "componentType" : 5126,
            "count" : 604,
            "max" : [
                3.249828338623047,
                0.8827614188194275,
                7.876243591308594
            ],
            "min" : [
                -12.49783706665039,
                -0.8827619552612305,
                -18.075347900390625
            ],
            "type" : "VEC3"
        },
        {
            "bufferView" : 5,
            "componentType" : 5126,
            "count" : 604,
            "type" : "VEC3"
        },
        {
            "bufferView" : 6,
            "componentType" : 5126,
            "count" : 604,
            "type" : "VEC2"
        },
        {
            "bufferView" : 7,
            "componentType" : 5123,
            "count" : 1140,
            "type" : "SCALAR"
        },
        {
            "bufferView" : 8,
            "componentType" : 5126,
            "count" : 8,
            "max" : [
                0.27316999435424805,
                0.6278401017189026,
                -4.700167179107666
            ],
            "min" : [
                -9.735569953918457,
                0.6278399229049683,
                -14.56992244720459
            ],
            "type" : "VEC3"
        },
        {
            "bufferView" : 9,
            "componentType" : 5126,
            "count" : 8,
            "type" : "VEC3"
        },
        {
            "bufferView" : 10,
            "componentType" : 5126,
            "count" : 8,
            "type" : "VEC2"
        },
        {
            "bufferView" : 11,
            "componentType" : 5123,
            "count" : 12,
            "type" : "SCALAR"
        },
        {
            "bufferView" : 12,
            "componentType" : 5126,
            "count" : 52,
            "max" : [
                2.1050705909729004,
                0.8823019862174988,
                -3.599726676940918
            ],
            "min" : [
                -11.413082122802734,
                0.6278399229049683,
                -15.375079154968262
            ],
            "type" : "VEC3"
        },
        {
            "bufferView" : 13,
            "componentType" : 5126,
            "count" : 52,
            "type" : "VEC3"
        },
        {
            "bufferView" : 14,
            "componentType" : 5126,
            "count" : 52,
            "type" : "VEC2"
        },
        {
            "bufferView" : 15,
            "componentType" : 5123,
            "count" : 96,
            "type" : "SCALAR"
        },
        {
            "bufferView" : 16,
            "componentType" : 5126,
            "count" : 302,
            "max" : [
                -7.35914421081543,
                0.9346917867660522,
                2.4837026596069336
            ],
            "min" : [
                -11.020780563354492,
                0.382070928812027,
                -1.431835412979126
            ],
            "type" : "VEC3"
        },
        {
            "bufferView" : 17,
            "componentType" : 5126,
            "count" : 302,
            "type" : "VEC3"
        },
        {
            "bufferView" : 18,
            "componentType" : 5126,
            "count" : 302,
            "type" : "VEC2"
        },
        {
            "bufferView" : 19,
            "componentType" : 5123,
            "count" : 420,
            "type" : "SCALAR"
        },
        {
            "bufferView" : 20,
            "componentType" : 5126,
            "count" : 48,
            "max" : [
                -2.984624147415161,
                1.0065665245056152,
                5.778682708740234
            ],
            "min" : [
                -7.745545387268066,
                -0.3656594753265381,
                4.157871246337891
            ],
            "type" : "VEC3"
        },
        {
            "bufferView" : 21,
            "componentType" : 5126,
            "count" : 48,
            "type" : "VEC3"
        },
        {
            "bufferView" : 22,
            "componentType" : 5126,
            "count" : 48,
            "type" : "VEC2"
        },
        {
            "bufferView" : 23,
            "componentType" : 5123,
            "count" : 72,
            "type" : "SCALAR"
        }
    ],
    "bufferViews" : [
        {
            "buffer" : 0,
            "byteLength" : 1728,
            "byteOffset" : 0
        },
        {
            "buffer" : 0,
            "byteLength" : 1728,
            "byteOffset" : 1728
        },
        {
            "buffer" : 0,
            "byteLength" : 1152,
            "byteOffset" : 3456
        },
        {
            "buffer" : 0,
            "byteLength" : 408,
            "byteOffset" : 4608
        },
        {
            "buffer" : 0,
            "byteLength" : 7248,
            "byteOffset" : 5016
        },
        {
            "buffer" : 0,
            "byteLength" : 7248,
            "byteOffset" : 12264
        },
        {
            "buffer" : 0,
            "byteLength" : 4832,
            "byteOffset" : 19512
        },
        {
            "buffer" : 0,
            "byteLength" : 2280,
            "byteOffset" : 24344
        },
        {
            "buffer" : 0,
            "byteLength" : 96,
            "byteOffset" : 26624
        },
        {
            "buffer" : 0,
            "byteLength" : 96,
            "byteOffset" : 26720
        },
        {
            "buffer" : 0,
            "byteLength" : 64,
            "byteOffset" : 26816
        },
        {
            "buffer" : 0,
            "byteLength" : 24,
            "byteOffset" : 26880
        },
        {
            "buffer" : 0,
            "byteLength" : 624,
            "byteOffset" : 26904
        },
        {
            "buffer" : 0,
            "byteLength" : 624,
            "byteOffset" : 27528
        },
        {
            "buffer" : 0,
            "byteLength" : 416,
            "byteOffset" : 28152
        },
        {
            "buffer" : 0,
            "byteLength" : 192,
            "byteOffset" : 28568
        },
        {
            "buffer" : 0,
            "byteLength" : 3624,
            "byteOffset" : 28760
        },
        {
            "buffer" : 0,
            "byteLength" : 3624,
            "byteOffset" : 32384
        },
        {
            "buffer" : 0,
            "byteLength" : 2416,
            "byteOffset" : 36008
        },
        {
            "buffer" : 0,
            "byteLength" : 840,
            "byteOffset" : 38424
        },
        {
            "buffer" : 0,
            "byteLength" : 576,
            "byteOffset" : 39264
        },
        {
            "buffer" : 0,
            "byteLength" : 576,
            "byteOffset" : 39840
        },
        {
            "buffer" : 0,
            "byteLength" : 384,
            "byteOffset" : 40416
        },
        {
            "buffer" : 0,
            "byteLength" : 144,
            "byteOffset" : 40800
        }
    ],
    "buffers" : [
        {
            "byteLength" : 40944,
            "uri" : "data:application/octet-stream;base64,"
        }
    ]
}
